# xmcd
#
# Track frame offsets:
#	600
#	11926
#	24139
#	37791
#	51262
#	64253
#	78809
#	91091
#	101323
#	113814
#	130707
#	147629
#
# Disc length: 2150 seconds
#
# Revision: 0
# Processed by: cddbd v1.5.2PL0 Copyright (c) Steve Scherf et al.
# Submitted via: EasyCDDAExtractor 16.0.6.1
#
DISCID=94085e0c
DTITLE=Μητσιάς Μανώλης - Παρών-LP 1977, Άκης Πάνου
DYEAR=2007
DGENRE=Λαϊκή
TTITLE0=Ας μη με δει κανείς
TTITLE1=Μείνε πίκρα στην καρδιά μου
TTITLE2=Τρελλός
TTITLE3=Σε μάθανε
TTITLE4=Ζωή μου
TTITLE5=Άμα περάσει τούτο 'δώ
TTITLE6=Πνίγετ' η ζωή
TTITLE7=Ως πότε πια
TTITLE8=Κοινωνία
TTITLE9=Φαρμάκι
TTITLE10=Τι τραγούδι, να γράψω
TTITLE11=Το ίδιο κάνει
EXTD=
EXTT0=
EXTT1=
EXTT2=
EXTT3=
EXTT4=
EXTT5=
EXTT6=
EXTT7=
EXTT8=
EXTT9=
EXTT10=
EXTT11=
PLAYORDER=
